<svg xmlns="http://www.w3.org/2000/svg" width="980" height="320" viewBox="0 0 980 320" role="img" aria-label="After architecture: CEO guardrail owns stage reflection append">
  <rect width="980" height="320" fill="#ffffff"/>
  <defs>
    <marker id="arrow" markerWidth="10" markerHeight="10" refX="8" refY="3" orient="auto" markerUnits="strokeWidth">
      <path d="M0,0 L0,6 L9,3 z" fill="#222222"/>
    </marker>
  </defs>
  <g font-family="Arial, Helvetica, sans-serif" font-size="16" fill="#111111">
    <text x="30" y="34" font-size="22" font-weight="700">After: CEO guardrail owns stage reflection</text>

    <rect x="40" y="105" width="150" height="58" rx="4" fill="#f5f5f5" stroke="#222222"/>
    <text x="64" y="139">dev output</text>

    <line x1="190" y1="134" x2="250" y2="134" stroke="#222222" stroke-width="2" marker-end="url(#arrow)"/>
    <rect x="250" y="85" width="230" height="98" rx="4" fill="#f5f5f5" stroke="#222222"/>
    <text x="276" y="115">CEO guardrail model</text>
    <text x="278" y="138" font-size="13">reads latestResponse</text>
    <text x="278" y="158" font-size="13">forces append for plan/code</text>

    <line x1="480" y1="134" x2="540" y2="134" stroke="#222222" stroke-width="2" marker-end="url(#arrow)"/>
    <rect x="540" y="105" width="130" height="58" rx="4" fill="#f5f5f5" stroke="#222222"/>
    <text x="565" y="139">post dev</text>

    <line x1="670" y1="134" x2="730" y2="134" stroke="#222222" stroke-width="2" marker-end="url(#arrow)"/>
    <rect x="730" y="105" width="190" height="58" rx="4" fill="#f5f5f5" stroke="#222222"/>
    <text x="762" y="130">post CEO append</text>
    <text x="770" y="151" font-size="13">@dev reflection</text>

    <text x="250" y="235" font-size="14">No reflector role, no stage-hook metadata, no self-reflect loop.</text>
  </g>
</svg>
