<svg xmlns="http://www.w3.org/2000/svg" viewBox="0 0 680 790" width="680" height="790">
  <style>
    text { font-family: 'Helvetica Neue', Helvetica, Arial, 'PingFang SC', 'Microsoft YaHei', 'Microsoft JhengHei', 'SimHei', sans-serif; }
  </style>
  <defs>
    <marker id="arrow" markerWidth="10" markerHeight="7" refX="9" refY="3.5" orient="auto">
      <polygon points="0 0, 10 3.5, 0 7" fill="#6b7280"/>
    </marker>
  </defs>
  <rect width="680" height="790" fill="#ffffff"/>

  <rect x="40" y="40" width="600" height="112" rx="8" fill="none" stroke="#d1d5db" stroke-width="1.5"/>
  <text x="56" y="66" font-size="13" font-weight="600" fill="#6b7280">交互层</text>
  <rect x="56" y="76" width="160" height="64" rx="4" fill="#eff6ff" stroke="#bfdbfe" stroke-width="1.5"/>
  <text x="136" y="103" text-anchor="middle" font-size="13" font-weight="600" fill="#111827">GitHub</text>
  <text x="136" y="123" text-anchor="middle" font-size="11" fill="#6b7280">issue 对话入口</text>
  <rect x="240" y="76" width="118" height="26" rx="13" fill="#ffffff" stroke="#d1d5db" stroke-width="1.5"/>
  <text x="299" y="93" text-anchor="middle" font-size="11" fill="#6b7280">监听 issue</text>
  <rect x="372" y="76" width="118" height="26" rx="13" fill="#ffffff" stroke="#d1d5db" stroke-width="1.5"/>
  <text x="431" y="93" text-anchor="middle" font-size="11" fill="#6b7280">@mention 召唤</text>
  <rect x="504" y="76" width="118" height="26" rx="13" fill="#ffffff" stroke="#d1d5db" stroke-width="1.5"/>
  <text x="563" y="93" text-anchor="middle" font-size="11" fill="#6b7280">自动回评</text>
  <rect x="240" y="110" width="118" height="26" rx="13" fill="#ffffff" stroke="#d1d5db" stroke-width="1.5"/>
  <text x="299" y="127" text-anchor="middle" font-size="11" fill="#6b7280">eyes 反馈</text>
  <rect x="372" y="110" width="118" height="26" rx="13" fill="#ffffff" stroke="#d1d5db" stroke-width="1.5"/>
  <text x="431" y="127" text-anchor="middle" font-size="11" fill="#6b7280">反思接力</text>
  <rect x="504" y="110" width="118" height="26" rx="13" fill="#ffffff" stroke="#d1d5db" stroke-width="1.5"/>
  <text x="563" y="127" text-anchor="middle" font-size="11" fill="#6b7280">CEO 校正</text>

  <path d="M340 154 V164" fill="none" stroke="#6b7280" stroke-width="1.5" marker-end="url(#arrow)"/>

  <rect x="40" y="168" width="600" height="152" rx="8" fill="none" stroke="#d1d5db" stroke-width="1.5"/>
  <text x="56" y="194" font-size="13" font-weight="600" fill="#6b7280">运维层 · 规模与节奏</text>
  <rect x="56" y="204" width="276" height="48" rx="4" fill="#faf5ff" stroke="#d8b4fe" stroke-width="1.5"/>
  <text x="194" y="225" text-anchor="middle" font-size="13" font-weight="600" fill="#111827">仓库轮询节奏</text>
  <text x="194" y="243" text-anchor="middle" font-size="11" fill="#6b7280">闲时慢扫 · 忙时紧盯</text>
  <rect x="348" y="204" width="276" height="48" rx="4" fill="#faf5ff" stroke="#d8b4fe" stroke-width="1.5"/>
  <text x="486" y="225" text-anchor="middle" font-size="13" font-weight="600" fill="#111827">issue 生命周期</text>
  <text x="486" y="243" text-anchor="middle" font-size="11" fill="#6b7280">激活 · 休眠 · 上限裁剪 · 关闭移除</text>
  <rect x="56" y="260" width="276" height="48" rx="4" fill="#faf5ff" stroke="#d8b4fe" stroke-width="1.5"/>
  <text x="194" y="281" text-anchor="middle" font-size="13" font-weight="600" fill="#111827">Codex 并发与等待</text>
  <text x="194" y="299" text-anchor="middle" font-size="11" fill="#6b7280">全局 5 槽 · 超额排队 · 同 issue 串行</text>
  <rect x="348" y="260" width="276" height="48" rx="4" fill="#faf5ff" stroke="#d8b4fe" stroke-width="1.5"/>
  <text x="486" y="281" text-anchor="middle" font-size="13" font-weight="600" fill="#111827">运行中断处理</text>
  <text x="486" y="299" text-anchor="middle" font-size="11" fill="#6b7280">新消息打断在跑任务 · 稍后重跑</text>

  <path d="M340 322 V332" fill="none" stroke="#6b7280" stroke-width="1.5" marker-end="url(#arrow)"/>

  <rect x="40" y="336" width="600" height="208" rx="8" fill="none" stroke="#d1d5db" stroke-width="1.5"/>
  <text x="56" y="362" font-size="13" font-weight="600" fill="#6b7280">issue 内处理</text>
  <rect x="56" y="372" width="184" height="48" rx="4" fill="#f0fdfa" stroke="#99f6e4" stroke-width="1.5"/>
  <text x="148" y="393" text-anchor="middle" font-size="13" font-weight="600" fill="#111827">共享时间线</text>
  <text x="148" y="411" text-anchor="middle" font-size="11" fill="#6b7280">归一化成多角色对话</text>
  <rect x="248" y="372" width="184" height="48" rx="4" fill="#f0fdfa" stroke="#99f6e4" stroke-width="1.5"/>
  <text x="340" y="393" text-anchor="middle" font-size="13" font-weight="600" fill="#111827">触发判定</text>
  <text x="340" y="411" text-anchor="middle" font-size="11" fill="#6b7280">@召唤 · 阶段接力 · 跳过</text>
  <rect x="440" y="372" width="184" height="48" rx="4" fill="#f0fdfa" stroke="#99f6e4" stroke-width="1.5"/>
  <text x="532" y="393" text-anchor="middle" font-size="13" font-weight="600" fill="#111827">提示词封装</text>
  <text x="532" y="411" text-anchor="middle" font-size="11" fill="#6b7280">persona + 全量/增量对话</text>
  <rect x="56" y="428" width="184" height="48" rx="4" fill="#f0fdfa" stroke="#99f6e4" stroke-width="1.5"/>
  <text x="148" y="449" text-anchor="middle" font-size="13" font-weight="600" fill="#111827">角色记忆</text>
  <text x="148" y="467" text-anchor="middle" font-size="11" fill="#6b7280">每 issue + 角色独立续聊</text>
  <rect x="248" y="428" width="184" height="48" rx="4" fill="#f0fdfa" stroke="#99f6e4" stroke-width="1.5"/>
  <text x="340" y="449" text-anchor="middle" font-size="13" font-weight="600" fill="#111827">工作区准备</text>
  <text x="340" y="467" text-anchor="middle" font-size="11" fill="#6b7280">dev 独占 worktree</text>
  <rect x="440" y="428" width="184" height="48" rx="4" fill="#f0fdfa" stroke="#99f6e4" stroke-width="1.5"/>
  <text x="532" y="449" text-anchor="middle" font-size="13" font-weight="600" fill="#111827">CEO 发布把关</text>
  <text x="532" y="467" text-anchor="middle" font-size="11" fill="#6b7280">放行 · 改写 · 追加评论</text>
  <rect x="152" y="484" width="184" height="48" rx="4" fill="#f0fdfa" stroke="#99f6e4" stroke-width="1.5"/>
  <text x="244" y="505" text-anchor="middle" font-size="13" font-weight="600" fill="#111827">回评与反馈</text>
  <text x="244" y="523" text-anchor="middle" font-size="11" fill="#6b7280">角色前缀 · eyes 表态</text>
  <rect x="344" y="484" width="184" height="48" rx="4" fill="#f0fdfa" stroke="#99f6e4" stroke-width="1.5"/>
  <text x="436" y="505" text-anchor="middle" font-size="13" font-weight="600" fill="#111827">同轮自反</text>
  <text x="436" y="523" text-anchor="middle" font-size="11" fill="#6b7280">发布后立即复查 ≤ 3 次</text>

  <path d="M340 546 V556" fill="none" stroke="#6b7280" stroke-width="1.5" marker-end="url(#arrow)"/>

  <rect x="40" y="560" width="600" height="96" rx="8" fill="none" stroke="#d1d5db" stroke-width="1.5"/>
  <text x="56" y="586" font-size="13" font-weight="600" fill="#6b7280">大模型执行层</text>
  <rect x="56" y="596" width="568" height="48" rx="4" fill="#fff1f2" stroke="#fda4af" stroke-width="1.5"/>
  <text x="340" y="617" text-anchor="middle" font-size="13" font-weight="600" fill="#111827">Codex（本机 CLI）</text>
  <text x="340" y="635" text-anchor="middle" font-size="11" fill="#6b7280">每个 issue + 角色一条独立线程</text>

  <path d="M340 658 V668" fill="none" stroke="#6b7280" stroke-width="1.5" marker-end="url(#arrow)"/>

  <rect x="40" y="672" width="600" height="96" rx="8" fill="none" stroke="#d1d5db" stroke-width="1.5"/>
  <text x="56" y="698" font-size="13" font-weight="600" fill="#6b7280">资产及其维护</text>
  <rect x="56" y="708" width="136" height="48" rx="4" fill="#ffffff" stroke="#d1d5db" stroke-width="1.5"/>
  <text x="124" y="729" text-anchor="middle" font-size="13" font-weight="600" fill="#111827">agents/*.md</text>
  <text x="124" y="747" text-anchor="middle" font-size="11" fill="#6b7280">角色素材</text>
  <rect x="200" y="708" width="136" height="48" rx="4" fill="#ffffff" stroke="#d1d5db" stroke-width="1.5"/>
  <text x="268" y="729" text-anchor="middle" font-size="13" font-weight="600" fill="#111827">config*.toml</text>
  <text x="268" y="747" text-anchor="middle" font-size="11" fill="#6b7280">仓库白名单</text>
  <rect x="344" y="708" width="136" height="48" rx="4" fill="#ffffff" stroke="#d1d5db" stroke-width="1.5"/>
  <text x="412" y="729" text-anchor="middle" font-size="13" font-weight="600" fill="#111827">gh CLI</text>
  <text x="412" y="747" text-anchor="middle" font-size="11" fill="#6b7280">认证与调用</text>
  <rect x="488" y="708" width="136" height="48" rx="4" fill="#ffffff" stroke="#d1d5db" stroke-width="1.5"/>
  <text x="556" y="729" text-anchor="middle" font-size="13" font-weight="600" fill="#111827">git worktree</text>
  <text x="556" y="747" text-anchor="middle" font-size="11" fill="#6b7280">dev 独占工作区</text>
</svg>
